# Blender v2.78 (sub 0) OBJ File: '14.blend'
# www.blender.org
mtllib Loaf_of_Bread_01.mtl
g Bread_Circle.003
v -1.140281 4.131088 -4.782288
v -1.938159 3.877130 -4.782290
v -2.268651 3.079252 -4.782288
v -0.018506 3.248928 -4.782288
v 0.311985 3.877130 -4.782290
v 1.109863 4.131088 -4.782288
v -2.093710 2.645118 -4.782290
v -0.342403 3.877130 -4.782288
v 2.238233 3.079252 -4.782288
v 1.907741 3.877130 -4.782288
v 2.063292 2.645118 -4.782290
v -2.093710 0.207818 -4.782290
v 2.063292 0.207818 -4.782290
v -1.955795 -0.014235 -4.782290
v 1.925377 -0.014235 -4.782290
v -0.015209 -0.014235 -4.782290
v -1.140281 4.131088 4.827554
v -1.938159 3.877130 4.827554
v -2.268651 3.079252 4.827554
v -0.018506 3.248928 4.827554
v 0.311985 3.877130 4.827554
v 1.109863 4.131088 4.827554
v -2.093710 2.645118 4.827554
v -0.342403 3.877130 4.827554
v 2.238233 3.079252 4.827554
v 1.907741 3.877130 4.827554
v 2.063292 2.645118 4.827553
v -2.093710 0.207818 4.827553
v 2.063292 0.207818 4.827553
v -1.955795 -0.014235 4.827553
v 1.925377 -0.014235 4.827553
v -0.015209 -0.014235 4.827553
v -1.822011 3.642621 -4.985776
v -1.072330 3.876615 -4.959087
v -2.132539 2.892940 -4.959087
v 1.041890 3.876615 -4.959087
v 1.791571 3.642621 -4.985774
v 2.102099 2.892940 -4.959087
v -0.018318 3.062617 -5.033494
v 0.292210 3.642621 -4.985776
v -1.968166 2.485031 -4.959088
v -0.322650 3.642621 -4.985774
v 1.937726 2.485031 -4.959088
v -1.968166 0.194959 -4.959088
v 1.937726 0.194959 -4.959088
v -1.838582 -0.014235 -4.959088
v 1.808141 -0.014235 -4.959088
v -0.015220 -0.014235 -5.033494
v -0.015220 0.194959 -5.033494
v -0.015220 2.485031 -5.033494
v -2.093710 1.426468 -4.782290
v 2.063292 1.426468 -4.782290
v -2.093710 1.426468 4.827554
v 2.063292 1.426468 4.827553
v -1.968166 1.339995 -5.010686
v 1.937726 1.339995 -5.010686
v -0.015220 1.339995 -5.085093
v -1.870176 3.737117 5.075305
v -1.100509 3.979390 5.050434
v -2.188983 2.967449 5.050434
v 1.070079 3.979390 5.050434
v 1.839747 3.737117 5.075305
v 2.158554 2.967449 5.050434
v -0.018395 3.137125 5.125048
v 0.300412 3.737117 5.075305
v -2.020228 2.548665 5.050434
v -0.330841 3.737117 5.075305
v 1.989799 2.548665 5.050431
v -2.020228 1.373101 5.075305
v 1.989799 1.373101 5.075303
v 1.989799 0.197538 5.050431
v -1.887189 -0.014235 5.050431
v -2.020228 0.197538 5.050431
v 1.856759 -0.014235 5.050431
v -0.015215 -0.014235 5.125047
v -0.015215 0.197538 5.125047
v -0.015215 2.548665 5.125048
v -0.015215 1.373101 5.149919
vn 0.7401 -0.4591 -0.4915
vn -0.1836 0.6238 -0.7597
vn -0.7401 -0.4591 -0.4914
vn -0.8118 0.4456 -0.3774
vn 0.8512 -0.0115 -0.5247
vn 0.6498 0.2568 -0.7154
vn -0.8468 0.0116 -0.5318
vn 0.0000 -1.0000 0.0000
vn 0.1646 0.5662 -0.8077
vn 0.8833 -0.3559 -0.3050
vn 0.9180 -0.3699 0.1426
vn -0.8315 0.3374 0.4414
vn 0.8680 0.4576 0.1927
vn -0.2440 0.7983 0.5507
vn 0.2562 0.8339 0.4889
vn -0.9180 -0.3699 0.1426
vn 0.8212 -0.5129 0.2500
vn -0.2562 0.8339 0.4889
vn -0.8212 -0.5129 0.2499
vn 0.9275 -0.3738 0.0000
vn 0.3033 0.9529 0.0000
vn -1.0000 -0.0000 0.0000
vn 0.9239 0.3827 0.0000
vn 1.0000 0.0000 0.0000
vn -0.8850 0.4656 0.0000
vn -0.8495 -0.5276 0.0000
vn -0.3033 0.9529 0.0000
vn 0.8495 -0.5276 0.0000
vn -0.9275 -0.3738 0.0000
vn 0.8888 0.4583 0.0000
vn -0.9239 0.3827 0.0000
vn 0.0394 -0.0122 -0.9992
vn 0.0380 0.0450 -0.9983
vn -0.0380 0.0450 -0.9983
vn -0.0394 -0.0122 -0.9992
vn 0.0363 -0.0059 -0.9993
vn 0.0213 0.0158 -0.9996
vn 0.0000 0.1133 -0.9936
vn -0.0363 -0.0062 -0.9993
vn -0.0213 0.0159 -0.9996
vn -0.8833 -0.3560 -0.3049
vn 0.1836 0.6238 -0.7597
vn -0.1646 0.5662 -0.8077
vn 0.8177 0.4399 -0.3712
vn -0.6499 0.2569 -0.7153
vn -0.0380 -0.0450 -0.9983
vn 0.0380 -0.0450 -0.9983
vn -0.8635 0.4645 0.1964
vn 0.9542 0.0031 0.2990
vn -0.8512 -0.0115 -0.5247
vn 0.8467 0.0116 -0.5319
vn 0.0385 -0.0121 0.9992
vn 0.0372 0.0211 0.9991
vn -0.0372 0.0211 0.9991
vn -0.0385 -0.0121 0.9992
vn 0.0354 -0.0058 0.9994
vn 0.0209 0.0182 0.9996
vn 0.0000 0.1021 0.9948
vn -0.0355 -0.0061 0.9994
vn -0.0209 0.0183 0.9996
vn -0.0372 -0.0211 0.9991
vn 0.0372 -0.0211 0.9991
vn 0.2440 0.7983 0.5507
vn -0.9543 0.0031 0.2990
vn -0.9547 -0.0031 0.2977
vn 0.8315 0.3374 0.4414
vn 0.9546 -0.0031 0.2977
usemtl 795548
s off
f 13//1 15//1 47//1 45//1
f 5//2 6//2 36//2 40//2
f 14//3 12//3 44//3 46//3
f 4//4 5//4 40//4 39//4
f 52//5 13//5 45//5 56//5
f 10//6 9//6 38//6 37//6
f 51//7 7//7 41//7 55//7
f 15//8 16//8 48//8 47//8
f 6//9 10//9 37//9 36//9
f 9//10 11//10 43//10 38//10
f 27//11 25//11 63//11 68//11
f 18//12 19//12 60//12 58//12
f 20//13 24//13 67//13 64//13
f 17//14 18//14 58//14 59//14
f 24//15 17//15 59//15 67//15
f 30//8 32//8 75//8 72//8
f 19//16 23//16 66//16 60//16
f 31//17 29//17 71//17 74//17
f 22//18 21//18 65//18 61//18
f 28//19 30//19 72//19 73//19
f 11//20 9//20 25//20 27//20
f 10//21 6//21 22//21 26//21
f 16//8 15//8 31//8 32//8
f 51//22 12//22 28//22 53//22
f 9//23 10//23 26//23 25//23
f 52//24 11//24 27//24 54//24
f 5//25 4//25 20//25 21//25
f 12//26 14//26 30//26 28//26
f 6//27 5//27 21//27 22//27
f 15//28 13//28 29//28 31//28
f 3//29 7//29 23//29 19//29
f 14//8 16//8 32//8 30//8
f 8//21 1//21 17//21 24//21
f 1//27 2//27 18//27 17//27
f 4//30 8//30 24//30 20//30
f 2//31 3//31 19//31 18//31
f 48//32 49//32 45//32 47//32
f 57//33 50//33 43//33 56//33
f 55//34 41//34 50//34 57//34
f 46//35 44//35 49//35 48//35
f 43//36 50//36 39//36 38//36
f 37//37 38//37 39//37 40//37
f 36//38 37//38 40//38
f 41//39 35//39 39//39 50//39
f 35//40 33//40 42//40 39//40
f 34//38 42//38 33//38
f 7//41 3//41 35//41 41//41
f 16//8 14//8 46//8 48//8
f 1//42 8//42 42//42 34//42
f 2//43 1//43 34//43 33//43
f 8//44 4//44 39//44 42//44
f 3//45 2//45 33//45 35//45
f 44//46 55//46 57//46 49//46
f 49//47 57//47 56//47 45//47
f 13//24 52//24 54//24 29//24
f 7//22 51//22 53//22 23//22
f 21//48 20//48 64//48 65//48
f 54//49 27//49 68//49 70//49
f 12//50 51//50 55//50 44//50
f 11//51 52//51 56//51 43//51
f 75//52 74//52 71//52 76//52
f 78//53 70//53 68//53 77//53
f 69//54 78//54 77//54 66//54
f 72//55 75//55 76//55 73//55
f 68//56 63//56 64//56 77//56
f 62//57 65//57 64//57 63//57
f 61//58 65//58 62//58
f 66//59 77//59 64//59 60//59
f 60//60 64//60 67//60 58//60
f 59//58 58//58 67//58
f 73//61 76//61 78//61 69//61
f 76//62 71//62 70//62 78//62
f 26//63 22//63 61//63 62//63
f 32//8 31//8 74//8 75//8
f 23//64 53//64 69//64 66//64
f 53//65 28//65 73//65 69//65
f 25//66 26//66 62//66 63//66
f 29//67 54//67 70//67 71//67
